<?xml version="1.0" standalone="no"?>
<!DOCTYPE svg PUBLIC "-//W3C//DTD SVG 20010904//EN"
 "http://www.w3.org/TR/2001/REC-SVG-20010904/DTD/svg10.dtd">
<svg version="1.0" xmlns="http://www.w3.org/2000/svg"
 width="512.000000pt" height="512.000000pt" viewBox="0 0 512.000000 512.000000"
 preserveAspectRatio="xMidYMid meet">
<metadata>
Created by potrace 1.14, written by Peter Selinger 2001-2017
</metadata>
<g transform="translate(0.000000,512.000000) scale(0.100000,-0.100000)"
fill="#000000" stroke="none">
<path d="M1472 5108 c-332 -38 -612 -332 -638 -668 -1 -19 -3 -148 -3 -287
l-1 -252 -112 0 c-62 0 -231 0 -376 -1 l-262 0 2 -1907 3 -1908 2475 0 2475 0
3 1395 2 1395 -987 0 -988 0 -3 513 -2 512 -43 1 c-23 0 -192 0 -374 0 -253 0
-333 3 -334 12 0 7 -2 138 -3 292 -2 254 -4 287 -24 359 -73 257 -261 450
-512 524 -83 25 -193 32 -298 20z m195 -162 c187 -29 355 -162 432 -341 41
-96 48 -165 47 -440 l-1 -260 -578 -2 -579 -1 5 286 c2 158 7 297 10 310 4 12
9 30 11 40 11 47 67 153 110 205 132 160 333 236 543 203z"/>
</g>
</svg>
